<svg xmlns="http://www.w3.org/2000/svg" xmlns:xlink="http://www.w3.org/1999/xlink" id="Calque_1" data-name="Calque 1" viewBox="0 0 812.2 143.59"><defs><style>      .cls-1 {        fill: #2d2d2d;      }      .cls-2 {        fill: url(#Nouvelle_nuance_de_dégradé_1-2);      }      .cls-3 {        fill: url(#Nouvelle_nuance_de_dégradé_1-3);      }      .cls-4 {        fill: url(#Nouvelle_nuance_de_dégradé_1-4);      }      .cls-5 {        fill: url(#Nouvelle_nuance_de_dégradé_1-5);      }      .cls-6 {        fill: url(#Nouvelle_nuance_de_dégradé_1);      }    </style><linearGradient id="Nouvelle_nuance_de_d&#xE9;grad&#xE9;_1" data-name="Nouvelle nuance de d&#xE9;grad&#xE9;&#xA0;1" x1="2.42" y1="72.61" x2="155.67" y2="173.73" gradientUnits="userSpaceOnUse"><stop offset="0" stop-color="#2c56f0"></stop><stop offset=".12" stop-color="#406ef1"></stop><stop offset=".4" stop-color="#6a9ff3"></stop><stop offset=".61" stop-color="#84bdf5"></stop><stop offset=".72" stop-color="#8ec9f6"></stop><stop offset="1" stop-color="#8ec9f6"></stop></linearGradient><linearGradient id="Nouvelle_nuance_de_d&#xE9;grad&#xE9;_1-2" data-name="Nouvelle nuance de d&#xE9;grad&#xE9;&#xA0;1" x1="4.56" y1="69.37" x2="157.81" y2="170.48" xlink:href="#Nouvelle_nuance_de_d&#xE9;grad&#xE9;_1"></linearGradient><linearGradient id="Nouvelle_nuance_de_d&#xE9;grad&#xE9;_1-3" data-name="Nouvelle nuance de d&#xE9;grad&#xE9;&#xA0;1" x1="44.44" y1="8.92" x2="197.7" y2="110.03" xlink:href="#Nouvelle_nuance_de_d&#xE9;grad&#xE9;_1"></linearGradient><linearGradient id="Nouvelle_nuance_de_d&#xE9;grad&#xE9;_1-4" data-name="Nouvelle nuance de d&#xE9;grad&#xE9;&#xA0;1" x1="54.75" y1="-6.7" x2="208" y2="94.42" xlink:href="#Nouvelle_nuance_de_d&#xE9;grad&#xE9;_1"></linearGradient><linearGradient id="Nouvelle_nuance_de_d&#xE9;grad&#xE9;_1-5" data-name="Nouvelle nuance de d&#xE9;grad&#xE9;&#xA0;1" x1="49.56" y1="1.15" x2="202.82" y2="102.27" xlink:href="#Nouvelle_nuance_de_d&#xE9;grad&#xE9;_1"></linearGradient></defs><path class="cls-6" d="M72.19,109.2c-5.03-.28-9.34,3.57-9.62,8.6-.28,5.03,3.57,9.34,8.6,9.62,5.03,.28,9.34-3.57,9.62-8.6,.28-5.03-3.57-9.34-8.6-9.62Z"></path><path class="cls-2" d="M103.4,80.68c-.81-1.52-2.4-2.57-4.25-2.57-2.66,0-4.81,2.17-4.8,4.83s2.17,4.81,4.83,4.8c2,0,3.71-1.23,4.43-2.96l7.16,.02,30.91,54.32-24.17,.06L73.76,52.98,30.88,139.41l-24.2,.06L58.99,36.24l5.42,8.88-31.28,61.19c-2.63,.03-4.76,2.18-4.75,4.82s2.17,4.81,4.83,4.8,4.81-2.17,4.8-4.83c0-1.18-.45-2.24-1.15-3.08l32.25-63.08-10.45-17.11L0,143.59l33.42-.09L73.8,62.12l41.2,81.17,33.45-.09-35.2-62.49-9.85-.03Z"></path><path class="cls-3" d="M73.97,9.58l28.02,51.97h-11.1l-11.11-21.81c.63-.81,1.01-1.82,1.01-2.93,0-2.66-2.16-4.81-4.81-4.81s-4.81,2.16-4.81,4.81,2.16,4.81,4.81,4.81c.05,0,.1-.01,.15-.02l12.24,24.03h20.48L73.73,.51l-10.94,23.06,3.7,1.76,7.47-15.74Z"></path><path class="cls-4" d="M153.56,1.13V21.31h4.1V5.23h20.99V139.3h-8.45v-31.79c1.63-.77,2.77-2.42,2.77-4.34,0-2.66-2.16-4.81-4.81-4.81s-4.81,2.16-4.81,4.81c0,1.92,1.14,3.57,2.77,4.34v35.89h16.64V1.13h-29.19Z"></path><path class="cls-5" d="M157.66,30.33h12.55V15.89c1.63-.77,2.77-2.42,2.77-4.34,0-2.66-2.16-4.81-4.81-4.81s-4.81,2.16-4.81,4.81c0,1.92,1.14,3.57,2.77,4.34v10.34h-12.55v117.17h9.02v-4.1h-4.92V30.33Z"></path><g><path class="cls-1" d="M274.41,141.42c-25.92,0-45.95-13.59-46.31-37.19h26.82c.72,10.01,7.33,16.63,18.95,16.63s18.77-6.26,18.77-15.2c0-27-64.36-10.73-64.18-55.96,0-22.53,18.24-36.12,43.98-36.12s43.09,13.05,44.7,35.58h-27.53c-.54-8.22-7.15-14.66-17.88-14.84-9.83-.36-17.16,4.47-17.16,14.66,0,25.03,64.01,11.08,64.01,55.07,0,19.67-15.73,37.37-44.16,37.37Z"></path><path class="cls-1" d="M329.12,41.12h25.39l17.52,75.45,18.95-75.45h26.46l18.59,75.27,17.52-75.27h23.96l-28.96,99.05h-27l-18.06-69.19-18.06,69.19h-27.18l-29.14-99.05Z"></path><path class="cls-1" d="M488.42,14.66c0-8.22,6.44-14.66,15.38-14.66s15.38,6.44,15.38,14.66-6.61,14.66-15.38,14.66-15.38-6.44-15.38-14.66Zm2.68,26.46h25.03v99.05h-25.03V41.12Z"></path><path class="cls-1" d="M544.73,61.68h-11.8v-20.56h11.8V16.63h25.21v24.49h22.17v20.56h-22.17v47.92c0,6.62,2.68,9.48,10.55,9.48h11.62v21.1h-15.73c-18.95,0-31.65-8.05-31.65-30.75V61.68Z"></path><path class="cls-1" d="M652.72,39.51c24.67,0,41.3,12.87,46.66,35.04h-27c-2.86-8.4-9.48-13.77-19.85-13.77-13.95,0-23.24,10.55-23.24,29.86s9.3,29.68,23.24,29.68c10.37,0,16.81-4.65,19.85-13.59h27c-5.36,21.1-21.99,35.04-46.66,35.04-28.61,0-48.99-20.02-48.99-51.13s20.38-51.13,48.99-51.13Z"></path><path class="cls-1" d="M717.8,7.87h25.03V53.46c6.44-8.4,17.52-13.77,30.75-13.77,22.35,0,38.62,15.02,38.62,42.37v58.11h-25.03v-54.71c0-15.91-8.76-24.49-21.99-24.49s-22.35,8.58-22.35,24.49v54.71h-25.03V7.87Z"></path></g></svg>