<svg viewBox="0 0 600 340" xmlns="http://www.w3.org/2000/svg" fill="none">
  <defs>
    <linearGradient id="g" x1="0" y1="0" x2="1" y2="1">
      <stop offset="0%" stop-color="#0a1628"/>
      <stop offset="100%" stop-color="#0d1f35"/>
    </linearGradient>
    <linearGradient id="a" x1="0" y1="0" x2="1" y2="1">
      <stop offset="0%" stop-color="#2563eb"/>
      <stop offset="100%" stop-color="#14b8a6"/>
    </linearGradient>
  </defs>
  <rect width="600" height="340" fill="url(#g)"/>
  <!-- Decorative blob -->
  <ellipse cx="480" cy="60" rx="160" ry="100" fill="#2563eb" opacity=".07"/>
  <ellipse cx="120" cy="290" rx="140" ry="90" fill="#14b8a6" opacity=".06"/>
  <!-- House icon -->
  <path d="M270 190 L300 162 L330 190 L330 220 L270 220 Z" stroke="url(#a)" stroke-width="2" fill="none" opacity=".8"/>
  <rect x="290" y="205" width="20" height="15" rx="2" stroke="url(#a)" stroke-width="1.5" fill="none" opacity=".6"/>
  <!-- data dots -->
  <circle cx="210" cy="240" r="4" fill="#14b8a6" opacity=".5"/>
  <circle cx="230" cy="220" r="4" fill="#14b8a6" opacity=".6"/>
  <circle cx="250" cy="235" r="4" fill="#2563eb" opacity=".6"/>
  <circle cx="350" cy="245" r="4" fill="#14b8a6" opacity=".5"/>
  <circle cx="370" cy="225" r="4" fill="#2563eb" opacity=".6"/>
  <circle cx="390" cy="238" r="4" fill="#14b8a6" opacity=".5"/>
  <!-- Title -->
  <text x="300" y="130" text-anchor="middle" font-family="Sora, Inter, sans-serif" font-weight="700"
        font-size="22" fill="white" opacity=".9">Aradhi</text>
  <text x="300" y="153" text-anchor="middle" font-family="Inter, sans-serif" font-size="12"
        fill="#14b8a6" opacity=".8">Tunisian Real Estate Platform</text>
  <!-- Tags -->
  <rect x="192" y="272" width="72" height="22" rx="11" fill="#2563eb" opacity=".2"/>
  <text x="228" y="287" text-anchor="middle" font-family="Inter, sans-serif" font-size="11" fill="#60a5fa">XGBoost</text>
  <rect x="272" y="272" width="56" height="22" rx="11" fill="#0d9488" opacity=".2"/>
  <text x="300" y="287" text-anchor="middle" font-family="Inter, sans-serif" font-size="11" fill="#2dd4bf">FAISS</text>
  <rect x="336" y="272" width="72" height="22" rx="11" fill="#2563eb" opacity=".2"/>
  <text x="372" y="287" text-anchor="middle" font-family="Inter, sans-serif" font-size="11" fill="#60a5fa">FastAPI</text>
</svg>
