<svg viewBox="0 0 600 340" xmlns="http://www.w3.org/2000/svg" fill="none">
  <defs>
    <linearGradient id="g" x1="0" y1="0" x2="1" y2="1">
      <stop offset="0%" stop-color="#120a28"/>
      <stop offset="100%" stop-color="#1a0d35"/>
    </linearGradient>
    <linearGradient id="a" x1="0" y1="0" x2="1" y2="1">
      <stop offset="0%" stop-color="#7c3aed"/>
      <stop offset="100%" stop-color="#2563eb"/>
    </linearGradient>
  </defs>
  <rect width="600" height="340" fill="url(#g)"/>
  <ellipse cx="500" cy="80" rx="180" ry="110" fill="#7c3aed" opacity=".06"/>
  <ellipse cx="100" cy="280" rx="150" ry="90" fill="#2563eb" opacity=".07"/>
  <!-- Ticket icon -->
  <rect x="254" y="155" width="92" height="56" rx="8" stroke="url(#a)" stroke-width="2" fill="none" opacity=".8"/>
  <line x1="288" y1="155" x2="288" y2="211" stroke="url(#a)" stroke-width="1.5" stroke-dasharray="4 3" opacity=".5"/>
  <circle cx="254" cy="175" r="6" fill="url(#g)" stroke="url(#a)" stroke-width="1.5" opacity=".7"/>
  <circle cx="346" cy="175" r="6" fill="url(#g)" stroke="url(#a)" stroke-width="1.5" opacity=".7"/>
  <!-- Star decoration -->
  <text x="316" y="188" text-anchor="middle" font-family="sans-serif" font-size="18" fill="#a78bfa" opacity=".7">★</text>
  <!-- Title -->
  <text x="300" y="125" text-anchor="middle" font-family="Sora, Inter, sans-serif" font-weight="700"
        font-size="24" fill="white" opacity=".9">Evart</text>
  <text x="300" y="147" text-anchor="middle" font-family="Inter, sans-serif" font-size="12"
        fill="#a78bfa" opacity=".8">Event Ticketing Platform</text>
  <!-- Tags -->
  <rect x="176" y="272" width="70" height="22" rx="11" fill="#7c3aed" opacity=".2"/>
  <text x="211" y="287" text-anchor="middle" font-family="Inter, sans-serif" font-size="11" fill="#a78bfa">Symfony 6</text>
  <rect x="254" y="272" width="58" height="22" rx="11" fill="#2563eb" opacity=".2"/>
  <text x="283" y="287" text-anchor="middle" font-family="Inter, sans-serif" font-size="11" fill="#60a5fa">JavaFX</text>
  <rect x="320" y="272" width="52" height="22" rx="11" fill="#0d9488" opacity=".2"/>
  <text x="346" y="287" text-anchor="middle" font-family="Inter, sans-serif" font-size="11" fill="#2dd4bf">Stripe</text>
</svg>
