<svg viewBox="0 0 600 340" xmlns="http://www.w3.org/2000/svg" fill="none">
  <defs>
    <linearGradient id="g" x1="0" y1="0" x2="1" y2="1">
      <stop offset="0%" stop-color="#0a1628"/>
      <stop offset="100%" stop-color="#0d1f35"/>
    </linearGradient>
    <linearGradient id="a" x1="0" y1="0" x2="1" y2="1">
      <stop offset="0%" stop-color="#2563eb"/>
      <stop offset="100%" stop-color="#14b8a6"/>
    </linearGradient>
  </defs>
  <rect width="600" height="340" fill="url(#g)"/>
  <!-- Decorative blob -->
  <ellipse cx="480" cy="60" rx="160" ry="100" fill="#2563eb" opacity=".07"/>
  <ellipse cx="120" cy="290" rx="140" ry="90" fill="#14b8a6" opacity=".06"/>
  <!-- Ribbon icon (medical / awareness) -->
  <path d="M300 165
           C292 172, 285 180, 285 190
           C285 200, 292 207, 300 207
           C308 207, 315 200, 315 190
           C315 180, 308 172, 300 165 Z"
        stroke="url(#a)" stroke-width="2" fill="none" opacity=".8"/>
  <path d="M300 207 L288 222 M300 207 L312 222"
        stroke="url(#a)" stroke-width="2" fill="none" stroke-linecap="round" opacity=".7"/>
  <!-- Medical cross accent -->
  <rect x="296" y="176" width="8" height="20" rx="1.5" fill="url(#a)" opacity=".55"/>
  <rect x="290" y="182" width="20" height="8" rx="1.5" fill="url(#a)" opacity=".55"/>
  <!-- data dots -->
  <circle cx="210" cy="240" r="4" fill="#14b8a6" opacity=".5"/>
  <circle cx="230" cy="220" r="4" fill="#14b8a6" opacity=".6"/>
  <circle cx="250" cy="235" r="4" fill="#2563eb" opacity=".6"/>
  <circle cx="350" cy="245" r="4" fill="#14b8a6" opacity=".5"/>
  <circle cx="370" cy="225" r="4" fill="#2563eb" opacity=".6"/>
  <circle cx="390" cy="238" r="4" fill="#14b8a6" opacity=".5"/>
  <!-- Title -->
  <text x="300" y="130" text-anchor="middle" font-family="Sora, Inter, sans-serif" font-weight="700"
        font-size="22" fill="white" opacity=".9">PinkCare</text>
  <text x="300" y="153" text-anchor="middle" font-family="Inter, sans-serif" font-size="12"
        fill="#14b8a6" opacity=".8">Diagnostic Assisté du Cancer du Sein</text>
  <!-- Tags -->
  <rect x="178" y="272" width="64" height="22" rx="11" fill="#2563eb" opacity=".2"/>
  <text x="210" y="287" text-anchor="middle" font-family="Inter, sans-serif" font-size="11" fill="#60a5fa">Flask</text>
  <rect x="250" y="272" width="92" height="22" rx="11" fill="#0d9488" opacity=".2"/>
  <text x="296" y="287" text-anchor="middle" font-family="Inter, sans-serif" font-size="11" fill="#2dd4bf">Scikit-learn</text>
  <rect x="350" y="272" width="60" height="22" rx="11" fill="#2563eb" opacity=".2"/>
  <text x="380" y="287" text-anchor="middle" font-family="Inter, sans-serif" font-size="11" fill="#60a5fa">MLP</text>
</svg>
