<svg viewBox="0 0 600 340" xmlns="http://www.w3.org/2000/svg" fill="none">
  <defs>
    <linearGradient id="g" x1="0" y1="0" x2="1" y2="1">
      <stop offset="0%" stop-color="#0f1623"/>
      <stop offset="100%" stop-color="#121c2c"/>
    </linearGradient>
    <linearGradient id="accent" x1="0" y1="0" x2="1" y2="1">
      <stop offset="0%" stop-color="#2563eb"/>
      <stop offset="100%" stop-color="#14b8a6"/>
    </linearGradient>
  </defs>
  <rect width="600" height="340" fill="url(#g)"/>
  <!-- grid lines decoration -->
  <line x1="0" y1="113" x2="600" y2="113" stroke="#1f2c40" stroke-width="1"/>
  <line x1="0" y1="227" x2="600" y2="227" stroke="#1f2c40" stroke-width="1"/>
  <line x1="200" y1="0" x2="200" y2="340" stroke="#1f2c40" stroke-width="1"/>
  <line x1="400" y1="0" x2="400" y2="340" stroke="#1f2c40" stroke-width="1"/>
  <!-- center icon box -->
  <rect x="256" y="126" width="88" height="88" rx="16" fill="url(#accent)" opacity=".12"/>
  <rect x="260" y="130" width="80" height="80" rx="14" stroke="url(#accent)" stroke-width="1.5" fill="none" opacity=".4"/>
  <!-- image icon paths -->
  <path d="M288 158h24a4 4 0 0 1 4 4v24a4 4 0 0 1-4 4h-24a4 4 0 0 1-4-4v-24a4 4 0 0 1 4-4z"
        stroke="#14b8a6" stroke-width="1.5" fill="none" opacity=".7"/>
  <circle cx="291" cy="163" r="3" fill="#14b8a6" opacity=".7"/>
  <path d="M284 178l8-8 5 5 4-4 7 7" stroke="#14b8a6" stroke-width="1.5" fill="none" stroke-linecap="round" opacity=".7"/>
  <!-- label -->
  <text x="300" y="232" text-anchor="middle" font-family="Inter, sans-serif" font-size="13"
        fill="#5d7088">Ajoute tes captures d'écran</text>
  <text x="300" y="252" text-anchor="middle" font-family="Inter, sans-serif" font-size="11"
        fill="#14b8a6" opacity=".6">assets/images/projects/</text>
</svg>
